<svg width="800" height="600" viewBox="0 0 800 600" xmlns="http://www.w3.org/2000/svg">
  <!-- Sky gradient -->
  <defs>
    <linearGradient id="skyGradient" x1="0%" y1="0%" x2="0%" y2="100%">
      <stop offset="0%" style="stop-color:#87CEEB;stop-opacity:1" />
      <stop offset="100%" style="stop-color:#98FB98;stop-opacity:1" />
    </linearGradient>
  </defs>
  
  <!-- Sky background -->
  <rect width="800" height="400" fill="url(#skyGradient)" />
  
  <!-- Ground -->
  <rect x="0" y="400" width="800" height="200" fill="#8B4513" />
  
  <!-- Simple hills -->
  <ellipse cx="200" cy="400" rx="150" ry="80" fill="#228B22" />
  <ellipse cx="500" cy="400" rx="120" ry="60" fill="#32CD32" />
  <ellipse cx="700" cy="400" rx="100" ry="50" fill="#228B22" />
  
  <!-- Simple clouds -->
  <g fill="white" opacity="0.8">
    <ellipse cx="150" cy="80" rx="30" ry="20" />
    <ellipse cx="170" cy="80" rx="40" ry="25" />
    <ellipse cx="190" cy="80" rx="30" ry="20" />
    
    <ellipse cx="450" cy="120" rx="25" ry="15" />
    <ellipse cx="465" cy="120" rx="35" ry="20" />
    <ellipse cx="480" cy="120" rx="25" ry="15" />
    
    <ellipse cx="650" cy="60" rx="40" ry="25" />
    <ellipse cx="675" cy="60" rx="50" ry="30" />
    <ellipse cx="700" cy="60" rx="35" ry="20" />
  </g>
  
  <!-- Simple bushes -->
  <g fill="#006400">
    <ellipse cx="100" cy="380" rx="40" ry="20" />
    <ellipse cx="300" cy="390" rx="35" ry="18" />
    <ellipse cx="600" cy="385" rx="45" ry="22" />
  </g>
</svg>