<svg width="800" height="600" viewBox="0 0 800 600" xmlns="http://www.w3.org/2000/svg">
  <!-- Castle theme -->
  <defs>
    <linearGradient id="castleGradient" x1="0%" y1="0%" x2="0%" y2="100%">
      <stop offset="0%" style="stop-color:#8A2BE2;stop-opacity:1" />
      <stop offset="100%" style="stop-color:#4B0082;stop-opacity:1" />
    </linearGradient>
  </defs>
  
  <!-- Purple sky background -->
  <rect width="800" height="400" fill="url(#castleGradient)" />
  
  <!-- Castle ground -->
  <rect x="0" y="400" width="800" height="200" fill="#2F2F2F" />
  
  <!-- Castle towers -->
  <g fill="#708090">
    <!-- Main tower -->
    <rect x="350" y="200" width="100" height="200" />
    <polygon points="340,200 360,180 440,180 460,200" />
    
    <!-- Side towers -->
    <rect x="250" y="250" width="60" height="150" />
    <polygon points="245,250 255,235 305,235 315,250" />
    
    <rect x="490" y="250" width="60" height="150" />
    <polygon points="485,250 495,235 545,235 555,250" />
  </g>
  
  <!-- Castle windows -->
  <g fill="#1C1C1C">
    <rect x="370" y="220" width="15" height="20" />
    <rect x="415" y="220" width="15" height="20" />
    <rect x="370" y="280" width="15" height="20" />
    <rect x="415" y="280" width="15" height="20" />
    <rect x="370" y="340" width="15" height="20" />
    <rect x="415" y="340" width="15" height="20" />
    
    <rect x="270" y="270" width="10" height="15" />
    <rect x="510" y="270" width="10" height="15" />
    <rect x="270" y="320" width="10" height="15" />
    <rect x="510" y="320" width="10" height="15" />
  </g>
  
  <!-- Castle gate -->
  <g fill="#8B4513">
    <rect x="380" y="350" width="40" height="50" />
    <circle cx="390" cy="375" r="2" fill="#FFD700" />
  </g>
  
  <!-- Stars -->
  <g fill="#FFD700" opacity="0.8">
    <polygon points="100,80 102,86 108,86 103,90 105,96 100,92 95,96 97,90 92,86 98,86" />
    <polygon points="200,60 202,66 208,66 203,70 205,76 200,72 195,76 197,70 192,66 198,66" />
    <polygon points="600,100 602,106 608,106 603,110 605,116 600,112 595,116 597,110 592,106 598,106" />
    <polygon points="720,70 722,76 728,76 723,80 725,86 720,82 715,86 717,80 712,76 718,76" />
  </g>
</svg>